<?xml version="1.0" encoding="utf-8" standalone="no"?>
<!DOCTYPE svg PUBLIC "-//W3C//DTD SVG 1.1//EN"
  "http://www.w3.org/Graphics/SVG/1.1/DTD/svg11.dtd">
<svg xmlns:xlink="http://www.w3.org/1999/xlink" width="1118.88pt" height="837.36pt" viewBox="0 0 1118.88 837.36" xmlns="http://www.w3.org/2000/svg" version="1.1">
 <metadata>
  <rdf:RDF xmlns:dc="http://purl.org/dc/elements/1.1/" xmlns:cc="http://creativecommons.org/ns#" xmlns:rdf="http://www.w3.org/1999/02/22-rdf-syntax-ns#">
   <cc:Work>
    <dc:type rdf:resource="http://purl.org/dc/dcmitype/StillImage"/>
    <dc:date>2022-06-02T11:39:39.716799</dc:date>
    <dc:format>image/svg+xml</dc:format>
    <dc:creator>
     <cc:Agent>
      <dc:title>Matplotlib v3.5.1, https://matplotlib.org/</dc:title>
     </cc:Agent>
    </dc:creator>
   </cc:Work>
  </rdf:RDF>
 </metadata>
 <defs>
  <style type="text/css">*{stroke-linejoin: round; stroke-linecap: butt}</style>
 </defs>
 <g id="figure_1">
  <g id="patch_1">
   <path d="M 0 837.36 
L 1118.88 837.36 
L 1118.88 0 
L 0 0 
z
" style="fill: #ffffff"/>
  </g>
  <g id="axes_1">
   <g id="patch_2">
    <path d="M 50.333125 205.470937 
L 946.850625 205.470937 
L 946.850625 53.901562 
L 50.333125 53.901562 
z
" style="fill: #eaeaf2"/>
   </g>
   <g id="matplotlib.axis_1">
    <g id="xtick_1">
     <g id="line2d_1">
      <path d="M 159.001913 205.470937 
L 159.001913 53.901562 
" clip-path="url(#p355277eba3)" style="fill: none; stroke: #ffffff; stroke-linecap: round"/>
     </g>
     <g id="text_1">
      <!-- 1 -->
      <g style="fill: #262626" transform="translate(155.943397 222.844531)scale(0.11 -0.11)">
       <defs>
        <path id="ArialMT-31" d="M 2384 0 
L 1822 0 
L 1822 3584 
Q 1619 3391 1289 3197 
Q 959 3003 697 2906 
L 697 3450 
Q 1169 3672 1522 3987 
Q 1875 4303 2022 4600 
L 2384 4600 
L 2384 0 
z
" transform="scale(0.015625)"/>
       </defs>
       <use xlink:href="#ArialMT-31"/>
      </g>
     </g>
    </g>
    <g id="xtick_2">
     <g id="line2d_2">
      <path d="M 328.796894 205.470937 
L 328.796894 53.901562 
" clip-path="url(#p355277eba3)" style="fill: none; stroke: #ffffff; stroke-linecap: round"/>
     </g>
     <g id="text_2">
      <!-- 2 -->
      <g style="fill: #262626" transform="translate(325.738378 222.844531)scale(0.11 -0.11)">
       <defs>
        <path id="ArialMT-32" d="M 3222 541 
L 3222 0 
L 194 0 
Q 188 203 259 391 
Q 375 700 629 1000 
Q 884 1300 1366 1694 
Q 2113 2306 2375 2664 
Q 2638 3022 2638 3341 
Q 2638 3675 2398 3904 
Q 2159 4134 1775 4134 
Q 1369 4134 1125 3890 
Q 881 3647 878 3216 
L 300 3275 
Q 359 3922 746 4261 
Q 1134 4600 1788 4600 
Q 2447 4600 2831 4234 
Q 3216 3869 3216 3328 
Q 3216 3053 3103 2787 
Q 2991 2522 2730 2228 
Q 2469 1934 1863 1422 
Q 1356 997 1212 845 
Q 1069 694 975 541 
L 3222 541 
z
" transform="scale(0.015625)"/>
       </defs>
       <use xlink:href="#ArialMT-32"/>
      </g>
     </g>
    </g>
    <g id="xtick_3">
     <g id="line2d_3">
      <path d="M 498.591875 205.470937 
L 498.591875 53.901562 
" clip-path="url(#p355277eba3)" style="fill: none; stroke: #ffffff; stroke-linecap: round"/>
     </g>
     <g id="text_3">
      <!-- 3 -->
      <g style="fill: #262626" transform="translate(495.533359 222.844531)scale(0.11 -0.11)">
       <defs>
        <path id="ArialMT-33" d="M 269 1209 
L 831 1284 
Q 928 806 1161 595 
Q 1394 384 1728 384 
Q 2125 384 2398 659 
Q 2672 934 2672 1341 
Q 2672 1728 2419 1979 
Q 2166 2231 1775 2231 
Q 1616 2231 1378 2169 
L 1441 2663 
Q 1497 2656 1531 2656 
Q 1891 2656 2178 2843 
Q 2466 3031 2466 3422 
Q 2466 3731 2256 3934 
Q 2047 4138 1716 4138 
Q 1388 4138 1169 3931 
Q 950 3725 888 3313 
L 325 3413 
Q 428 3978 793 4289 
Q 1159 4600 1703 4600 
Q 2078 4600 2393 4439 
Q 2709 4278 2876 4000 
Q 3044 3722 3044 3409 
Q 3044 3113 2884 2869 
Q 2725 2625 2413 2481 
Q 2819 2388 3044 2092 
Q 3269 1797 3269 1353 
Q 3269 753 2831 336 
Q 2394 -81 1725 -81 
Q 1122 -81 723 278 
Q 325 638 269 1209 
z
" transform="scale(0.015625)"/>
       </defs>
       <use xlink:href="#ArialMT-33"/>
      </g>
     </g>
    </g>
    <g id="xtick_4">
     <g id="line2d_4">
      <path d="M 668.386856 205.470937 
L 668.386856 53.901562 
" clip-path="url(#p355277eba3)" style="fill: none; stroke: #ffffff; stroke-linecap: round"/>
     </g>
     <g id="text_4">
      <!-- 4 -->
      <g style="fill: #262626" transform="translate(665.32834 222.844531)scale(0.11 -0.11)">
       <defs>
        <path id="ArialMT-34" d="M 2069 0 
L 2069 1097 
L 81 1097 
L 81 1613 
L 2172 4581 
L 2631 4581 
L 2631 1613 
L 3250 1613 
L 3250 1097 
L 2631 1097 
L 2631 0 
L 2069 0 
z
M 2069 1613 
L 2069 3678 
L 634 1613 
L 2069 1613 
z
" transform="scale(0.015625)"/>
       </defs>
       <use xlink:href="#ArialMT-34"/>
      </g>
     </g>
    </g>
    <g id="xtick_5">
     <g id="line2d_5">
      <path d="M 838.181837 205.470937 
L 838.181837 53.901562 
" clip-path="url(#p355277eba3)" style="fill: none; stroke: #ffffff; stroke-linecap: round"/>
     </g>
     <g id="text_5">
      <!-- 5 -->
      <g style="fill: #262626" transform="translate(835.123321 222.844531)scale(0.11 -0.11)">
       <defs>
        <path id="ArialMT-35" d="M 266 1200 
L 856 1250 
Q 922 819 1161 601 
Q 1400 384 1738 384 
Q 2144 384 2425 690 
Q 2706 997 2706 1503 
Q 2706 1984 2436 2262 
Q 2166 2541 1728 2541 
Q 1456 2541 1237 2417 
Q 1019 2294 894 2097 
L 366 2166 
L 809 4519 
L 3088 4519 
L 3088 3981 
L 1259 3981 
L 1013 2750 
Q 1425 3038 1878 3038 
Q 2478 3038 2890 2622 
Q 3303 2206 3303 1553 
Q 3303 931 2941 478 
Q 2500 -78 1738 -78 
Q 1113 -78 717 272 
Q 322 622 266 1200 
z
" transform="scale(0.015625)"/>
       </defs>
       <use xlink:href="#ArialMT-35"/>
      </g>
     </g>
    </g>
   </g>
   <g id="matplotlib.axis_2">
    <g id="ytick_1">
     <g id="line2d_6">
      <path d="M 50.333125 186.055026 
L 946.850625 186.055026 
" clip-path="url(#p355277eba3)" style="fill: none; stroke: #ffffff; stroke-linecap: round"/>
     </g>
     <g id="text_6">
      <!-- −10 -->
      <g style="fill: #262626" transform="translate(22.174375 189.991823)scale(0.11 -0.11)">
       <defs>
        <path id="ArialMT-2212" d="M 3381 1997 
L 356 1997 
L 356 2522 
L 3381 2522 
L 3381 1997 
z
" transform="scale(0.015625)"/>
        <path id="ArialMT-30" d="M 266 2259 
Q 266 3072 433 3567 
Q 600 4063 929 4331 
Q 1259 4600 1759 4600 
Q 2128 4600 2406 4451 
Q 2684 4303 2865 4023 
Q 3047 3744 3150 3342 
Q 3253 2941 3253 2259 
Q 3253 1453 3087 958 
Q 2922 463 2592 192 
Q 2263 -78 1759 -78 
Q 1097 -78 719 397 
Q 266 969 266 2259 
z
M 844 2259 
Q 844 1131 1108 757 
Q 1372 384 1759 384 
Q 2147 384 2411 759 
Q 2675 1134 2675 2259 
Q 2675 3391 2411 3762 
Q 2147 4134 1753 4134 
Q 1366 4134 1134 3806 
Q 844 3388 844 2259 
z
" transform="scale(0.015625)"/>
       </defs>
       <use xlink:href="#ArialMT-2212"/>
       <use xlink:href="#ArialMT-31" x="58.398438"/>
       <use xlink:href="#ArialMT-30" x="114.013672"/>
      </g>
     </g>
    </g>
    <g id="ytick_2">
     <g id="line2d_7">
      <path d="M 50.333125 154.739039 
L 946.850625 154.739039 
" clip-path="url(#p355277eba3)" style="fill: none; stroke: #ffffff; stroke-linecap: round"/>
     </g>
     <g id="text_7">
      <!-- −5 -->
      <g style="fill: #262626" transform="translate(28.291406 158.675836)scale(0.11 -0.11)">
       <use xlink:href="#ArialMT-2212"/>
       <use xlink:href="#ArialMT-35" x="58.398438"/>
      </g>
     </g>
    </g>
    <g id="ytick_3">
     <g id="line2d_8">
      <path d="M 50.333125 123.423053 
L 946.850625 123.423053 
" clip-path="url(#p355277eba3)" style="fill: none; stroke: #ffffff; stroke-linecap: round"/>
     </g>
     <g id="text_8">
      <!-- 0 -->
      <g style="fill: #262626" transform="translate(34.716094 127.35985)scale(0.11 -0.11)">
       <use xlink:href="#ArialMT-30"/>
      </g>
     </g>
    </g>
    <g id="ytick_4">
     <g id="line2d_9">
      <path d="M 50.333125 92.107066 
L 946.850625 92.107066 
" clip-path="url(#p355277eba3)" style="fill: none; stroke: #ffffff; stroke-linecap: round"/>
     </g>
     <g id="text_9">
      <!-- 5 -->
      <g style="fill: #262626" transform="translate(34.716094 96.043863)scale(0.11 -0.11)">
       <use xlink:href="#ArialMT-35"/>
      </g>
     </g>
    </g>
    <g id="ytick_5">
     <g id="line2d_10">
      <path d="M 50.333125 60.79108 
L 946.850625 60.79108 
" clip-path="url(#p355277eba3)" style="fill: none; stroke: #ffffff; stroke-linecap: round"/>
     </g>
     <g id="text_10">
      <!-- 10 -->
      <g style="fill: #262626" transform="translate(28.599063 64.727876)scale(0.11 -0.11)">
       <use xlink:href="#ArialMT-31"/>
       <use xlink:href="#ArialMT-30" x="55.615234"/>
      </g>
     </g>
    </g>
    <g id="text_11">
     <!-- $\omega_1$ -->
     <g style="fill: #262626" transform="translate(15.789375 137.60625)rotate(-90)scale(0.12 -0.12)">
      <defs>
       <path id="DejaVuSans-Oblique-3c9" d="M 1369 -91 
Q 72 -91 434 1766 
Q 575 2500 1256 3500 
L 1875 3500 
Q 1231 2500 1088 1750 
Q 819 397 1519 397 
Q 2166 397 2478 2078 
L 3009 2078 
Q 2669 388 3316 397 
Q 4013 403 4275 1750 
Q 4419 2500 4169 3500 
L 4788 3500 
Q 5075 2500 4934 1766 
Q 4578 -94 3278 -91 
Q 2428 -88 2503 844 
Q 2194 -91 1369 -91 
z
" transform="scale(0.015625)"/>
       <path id="DejaVuSans-31" d="M 794 531 
L 1825 531 
L 1825 4091 
L 703 3866 
L 703 4441 
L 1819 4666 
L 2450 4666 
L 2450 531 
L 3481 531 
L 3481 0 
L 794 0 
L 794 531 
z
" transform="scale(0.015625)"/>
      </defs>
      <use xlink:href="#DejaVuSans-Oblique-3c9" transform="translate(0 0.3125)"/>
      <use xlink:href="#DejaVuSans-31" transform="translate(83.740234 -16.09375)scale(0.7)"/>
     </g>
    </g>
   </g>
   <g id="patch_3">
    <path d="M 91.08392 123.423053 
L 226.919905 123.423053 
L 226.919905 60.79108 
L 91.08392 60.79108 
z
" clip-path="url(#p355277eba3)" style="fill: #6acc64; stroke: #ffffff; stroke-linejoin: miter"/>
   </g>
   <g id="patch_4">
    <path d="M 260.878902 123.423053 
L 396.714886 123.423053 
L 396.714886 73.317474 
L 260.878902 73.317474 
z
" clip-path="url(#p355277eba3)" style="fill: #6acc64; stroke: #ffffff; stroke-linejoin: miter"/>
   </g>
   <g id="patch_5">
    <path d="M 430.673883 123.423053 
L 566.509867 123.423053 
L 566.509867 67.054277 
L 430.673883 67.054277 
z
" clip-path="url(#p355277eba3)" style="fill: #6acc64; stroke: #ffffff; stroke-linejoin: miter"/>
   </g>
   <g id="patch_6">
    <path d="M 600.468864 123.423053 
L 736.304848 123.423053 
L 736.304848 67.054277 
L 600.468864 67.054277 
z
" clip-path="url(#p355277eba3)" style="fill: #6acc64; stroke: #ffffff; stroke-linejoin: miter"/>
   </g>
   <g id="patch_7">
    <path d="M 770.263845 123.423053 
L 906.09983 123.423053 
L 906.09983 67.054277 
L 770.263845 67.054277 
z
" clip-path="url(#p355277eba3)" style="fill: #6acc64; stroke: #ffffff; stroke-linejoin: miter"/>
   </g>
   <g id="patch_8">
    <path d="M 91.08392 123.423053 
L 226.919905 123.423053 
L 226.919905 60.79108 
L 91.08392 60.79108 
z
" clip-path="url(#p355277eba3)" style="fill: #4878d0; stroke: #ffffff; stroke-linejoin: miter"/>
   </g>
   <g id="patch_9">
    <path d="M 260.878902 123.423053 
L 396.714886 123.423053 
L 396.714886 73.317474 
L 260.878902 73.317474 
z
" clip-path="url(#p355277eba3)" style="fill: #4878d0; stroke: #ffffff; stroke-linejoin: miter"/>
   </g>
   <g id="patch_10">
    <path d="M 430.673883 123.423053 
L 566.509867 123.423053 
L 566.509867 85.843869 
L 430.673883 85.843869 
z
" clip-path="url(#p355277eba3)" style="fill: #4878d0; stroke: #ffffff; stroke-linejoin: miter"/>
   </g>
   <g id="patch_11">
    <path d="M 600.468864 123.423053 
L 736.304848 123.423053 
L 736.304848 67.054277 
L 600.468864 67.054277 
z
" clip-path="url(#p355277eba3)" style="fill: #4878d0; stroke: #ffffff; stroke-linejoin: miter"/>
   </g>
   <g id="patch_12">
    <path d="M 770.263845 123.423053 
L 906.09983 123.423053 
L 906.09983 67.054277 
L 770.263845 67.054277 
z
" clip-path="url(#p355277eba3)" style="fill: #4878d0; stroke: #ffffff; stroke-linejoin: miter"/>
   </g>
   <g id="patch_13">
    <path d="M 91.08392 123.423053 
L 226.919905 123.423053 
L 226.919905 186.055026 
L 91.08392 186.055026 
z
" clip-path="url(#p355277eba3)" style="fill: #d65f5f; stroke: #ffffff; stroke-linejoin: miter"/>
   </g>
   <g id="patch_14">
    <path d="M 260.878902 123.423053 
L 396.714886 123.423053 
L 396.714886 198.58142 
L 260.878902 198.58142 
z
" clip-path="url(#p355277eba3)" style="fill: #d65f5f; stroke: #ffffff; stroke-linejoin: miter"/>
   </g>
   <g id="patch_15">
    <path d="M 430.673883 123.423053 
L 566.509867 123.423053 
L 566.509867 192.318223 
L 430.673883 192.318223 
z
" clip-path="url(#p355277eba3)" style="fill: #d65f5f; stroke: #ffffff; stroke-linejoin: miter"/>
   </g>
   <g id="patch_16">
    <path d="M 600.468864 123.423053 
L 736.304848 123.423053 
L 736.304848 192.318223 
L 600.468864 192.318223 
z
" clip-path="url(#p355277eba3)" style="fill: #d65f5f; stroke: #ffffff; stroke-linejoin: miter"/>
   </g>
   <g id="patch_17">
    <path d="M 770.263845 123.423053 
L 906.09983 123.423053 
L 906.09983 192.318223 
L 770.263845 192.318223 
z
" clip-path="url(#p355277eba3)" style="fill: #d65f5f; stroke: #ffffff; stroke-linejoin: miter"/>
   </g>
   <g id="patch_18">
    <path d="M 91.08392 123.423053 
L 226.919905 123.423053 
L 226.919905 186.055026 
L 91.08392 186.055026 
z
" clip-path="url(#p355277eba3)" style="fill: #d5bb67; stroke: #ffffff; stroke-linejoin: miter"/>
   </g>
   <g id="patch_19">
    <path d="M 260.878902 123.423053 
L 396.714886 123.423053 
L 396.714886 186.055026 
L 260.878902 186.055026 
z
" clip-path="url(#p355277eba3)" style="fill: #d5bb67; stroke: #ffffff; stroke-linejoin: miter"/>
   </g>
   <g id="patch_20">
    <path d="M 430.673883 123.423053 
L 566.509867 123.423053 
L 566.509867 179.791829 
L 430.673883 179.791829 
z
" clip-path="url(#p355277eba3)" style="fill: #d5bb67; stroke: #ffffff; stroke-linejoin: miter"/>
   </g>
   <g id="patch_21">
    <path d="M 600.468864 123.423053 
L 736.304848 123.423053 
L 736.304848 192.318223 
L 600.468864 192.318223 
z
" clip-path="url(#p355277eba3)" style="fill: #d5bb67; stroke: #ffffff; stroke-linejoin: miter"/>
   </g>
   <g id="patch_22">
    <path d="M 770.263845 123.423053 
L 906.09983 123.423053 
L 906.09983 192.318223 
L 770.263845 192.318223 
z
" clip-path="url(#p355277eba3)" style="fill: #d5bb67; stroke: #ffffff; stroke-linejoin: miter"/>
   </g>
   <g id="patch_23">
    <path d="M 50.333125 205.470937 
L 50.333125 53.901562 
" style="fill: none; stroke: #ffffff; stroke-width: 1.25; stroke-linejoin: miter; stroke-linecap: square"/>
   </g>
   <g id="patch_24">
    <path d="M 946.850625 205.470937 
L 946.850625 53.901562 
" style="fill: none; stroke: #ffffff; stroke-width: 1.25; stroke-linejoin: miter; stroke-linecap: square"/>
   </g>
   <g id="patch_25">
    <path d="M 50.333125 205.470937 
L 946.850625 205.470937 
" style="fill: none; stroke: #ffffff; stroke-width: 1.25; stroke-linejoin: miter; stroke-linecap: square"/>
   </g>
   <g id="patch_26">
    <path d="M 50.333125 53.901562 
L 946.850625 53.901562 
" style="fill: none; stroke: #ffffff; stroke-width: 1.25; stroke-linejoin: miter; stroke-linecap: square"/>
   </g>
  </g>
  <g id="axes_2">
   <g id="patch_27">
    <path d="M 50.333125 400.360156 
L 946.850625 400.360156 
L 946.850625 248.790781 
L 50.333125 248.790781 
z
" style="fill: #eaeaf2"/>
   </g>
   <g id="matplotlib.axis_3">
    <g id="xtick_6">
     <g id="line2d_11">
      <path d="M 159.001913 400.360156 
L 159.001913 248.790781 
" clip-path="url(#p0feb9d689f)" style="fill: none; stroke: #ffffff; stroke-linecap: round"/>
     </g>
     <g id="text_12">
      <!-- 1 -->
      <g style="fill: #262626" transform="translate(155.943397 417.73375)scale(0.11 -0.11)">
       <use xlink:href="#ArialMT-31"/>
      </g>
     </g>
    </g>
    <g id="xtick_7">
     <g id="line2d_12">
      <path d="M 328.796894 400.360156 
L 328.796894 248.790781 
" clip-path="url(#p0feb9d689f)" style="fill: none; stroke: #ffffff; stroke-linecap: round"/>
     </g>
     <g id="text_13">
      <!-- 2 -->
      <g style="fill: #262626" transform="translate(325.738378 417.73375)scale(0.11 -0.11)">
       <use xlink:href="#ArialMT-32"/>
      </g>
     </g>
    </g>
    <g id="xtick_8">
     <g id="line2d_13">
      <path d="M 498.591875 400.360156 
L 498.591875 248.790781 
" clip-path="url(#p0feb9d689f)" style="fill: none; stroke: #ffffff; stroke-linecap: round"/>
     </g>
     <g id="text_14">
      <!-- 3 -->
      <g style="fill: #262626" transform="translate(495.533359 417.73375)scale(0.11 -0.11)">
       <use xlink:href="#ArialMT-33"/>
      </g>
     </g>
    </g>
    <g id="xtick_9">
     <g id="line2d_14">
      <path d="M 668.386856 400.360156 
L 668.386856 248.790781 
" clip-path="url(#p0feb9d689f)" style="fill: none; stroke: #ffffff; stroke-linecap: round"/>
     </g>
     <g id="text_15">
      <!-- 4 -->
      <g style="fill: #262626" transform="translate(665.32834 417.73375)scale(0.11 -0.11)">
       <use xlink:href="#ArialMT-34"/>
      </g>
     </g>
    </g>
    <g id="xtick_10">
     <g id="line2d_15">
      <path d="M 838.181837 400.360156 
L 838.181837 248.790781 
" clip-path="url(#p0feb9d689f)" style="fill: none; stroke: #ffffff; stroke-linecap: round"/>
     </g>
     <g id="text_16">
      <!-- 5 -->
      <g style="fill: #262626" transform="translate(835.123321 417.73375)scale(0.11 -0.11)">
       <use xlink:href="#ArialMT-35"/>
      </g>
     </g>
    </g>
   </g>
   <g id="matplotlib.axis_4">
    <g id="ytick_6">
     <g id="line2d_16">
      <path d="M 50.333125 354.10197 
L 946.850625 354.10197 
" clip-path="url(#p0feb9d689f)" style="fill: none; stroke: #ffffff; stroke-linecap: round"/>
     </g>
     <g id="text_17">
      <!-- −10 -->
      <g style="fill: #262626" transform="translate(22.174375 358.038767)scale(0.11 -0.11)">
       <use xlink:href="#ArialMT-2212"/>
       <use xlink:href="#ArialMT-31" x="58.398438"/>
       <use xlink:href="#ArialMT-30" x="114.013672"/>
      </g>
     </g>
    </g>
    <g id="ytick_7">
     <g id="line2d_17">
      <path d="M 50.333125 304.891134 
L 946.850625 304.891134 
" clip-path="url(#p0feb9d689f)" style="fill: none; stroke: #ffffff; stroke-linecap: round"/>
     </g>
     <g id="text_18">
      <!-- 0 -->
      <g style="fill: #262626" transform="translate(34.716094 308.827931)scale(0.11 -0.11)">
       <use xlink:href="#ArialMT-30"/>
      </g>
     </g>
    </g>
    <g id="ytick_8">
     <g id="line2d_18">
      <path d="M 50.333125 255.680298 
L 946.850625 255.680298 
" clip-path="url(#p0feb9d689f)" style="fill: none; stroke: #ffffff; stroke-linecap: round"/>
     </g>
     <g id="text_19">
      <!-- 10 -->
      <g style="fill: #262626" transform="translate(28.599063 259.617095)scale(0.11 -0.11)">
       <use xlink:href="#ArialMT-31"/>
       <use xlink:href="#ArialMT-30" x="55.615234"/>
      </g>
     </g>
    </g>
    <g id="text_20">
     <!-- $\omega_2$ -->
     <g style="fill: #262626" transform="translate(15.789375 332.495469)rotate(-90)scale(0.12 -0.12)">
      <defs>
       <path id="DejaVuSans-32" d="M 1228 531 
L 3431 531 
L 3431 0 
L 469 0 
L 469 531 
Q 828 903 1448 1529 
Q 2069 2156 2228 2338 
Q 2531 2678 2651 2914 
Q 2772 3150 2772 3378 
Q 2772 3750 2511 3984 
Q 2250 4219 1831 4219 
Q 1534 4219 1204 4116 
Q 875 4013 500 3803 
L 500 4441 
Q 881 4594 1212 4672 
Q 1544 4750 1819 4750 
Q 2544 4750 2975 4387 
Q 3406 4025 3406 3419 
Q 3406 3131 3298 2873 
Q 3191 2616 2906 2266 
Q 2828 2175 2409 1742 
Q 1991 1309 1228 531 
z
" transform="scale(0.015625)"/>
      </defs>
      <use xlink:href="#DejaVuSans-Oblique-3c9" transform="translate(0 0.3125)"/>
      <use xlink:href="#DejaVuSans-32" transform="translate(83.740234 -16.09375)scale(0.7)"/>
     </g>
    </g>
   </g>
   <g id="patch_28">
    <path d="M 91.08392 304.891134 
L 226.919905 304.891134 
L 226.919905 255.680298 
L 91.08392 255.680298 
z
" clip-path="url(#p0feb9d689f)" style="fill: #6acc64; stroke: #ffffff; stroke-linejoin: miter"/>
   </g>
   <g id="patch_29">
    <path d="M 260.878902 304.891134 
L 396.714886 304.891134 
L 396.714886 265.522466 
L 260.878902 265.522466 
z
" clip-path="url(#p0feb9d689f)" style="fill: #6acc64; stroke: #ffffff; stroke-linejoin: miter"/>
   </g>
   <g id="patch_30">
    <path d="M 430.673883 304.891134 
L 566.509867 304.891134 
L 566.509867 295.048967 
L 430.673883 295.048967 
z
" clip-path="url(#p0feb9d689f)" style="fill: #6acc64; stroke: #ffffff; stroke-linejoin: miter"/>
   </g>
   <g id="patch_31">
    <path d="M 600.468864 304.891134 
L 736.304848 304.891134 
L 736.304848 295.048967 
L 600.468864 295.048967 
z
" clip-path="url(#p0feb9d689f)" style="fill: #6acc64; stroke: #ffffff; stroke-linejoin: miter"/>
   </g>
   <g id="patch_32">
    <path d="M 770.263845 304.891134 
L 906.09983 304.891134 
L 906.09983 295.048967 
L 770.263845 295.048967 
z
" clip-path="url(#p0feb9d689f)" style="fill: #6acc64; stroke: #ffffff; stroke-linejoin: miter"/>
   </g>
   <g id="patch_33">
    <path d="M 91.08392 304.891134 
L 226.919905 304.891134 
L 226.919905 255.680298 
L 91.08392 255.680298 
z
" clip-path="url(#p0feb9d689f)" style="fill: #4878d0; stroke: #ffffff; stroke-linejoin: miter"/>
   </g>
   <g id="patch_34">
    <path d="M 260.878902 304.891134 
L 396.714886 304.891134 
L 396.714886 265.522466 
L 260.878902 265.522466 
z
" clip-path="url(#p0feb9d689f)" style="fill: #4878d0; stroke: #ffffff; stroke-linejoin: miter"/>
   </g>
   <g id="patch_35">
    <path d="M 430.673883 304.891134 
L 566.509867 304.891134 
L 566.509867 295.048967 
L 430.673883 295.048967 
z
" clip-path="url(#p0feb9d689f)" style="fill: #4878d0; stroke: #ffffff; stroke-linejoin: miter"/>
   </g>
   <g id="patch_36">
    <path d="M 600.468864 304.891134 
L 736.304848 304.891134 
L 736.304848 295.048967 
L 600.468864 295.048967 
z
" clip-path="url(#p0feb9d689f)" style="fill: #4878d0; stroke: #ffffff; stroke-linejoin: miter"/>
   </g>
   <g id="patch_37">
    <path d="M 770.263845 304.891134 
L 906.09983 304.891134 
L 906.09983 295.048967 
L 770.263845 295.048967 
z
" clip-path="url(#p0feb9d689f)" style="fill: #4878d0; stroke: #ffffff; stroke-linejoin: miter"/>
   </g>
   <g id="patch_38">
    <path d="M 91.08392 304.891134 
L 226.919905 304.891134 
L 226.919905 354.10197 
L 91.08392 354.10197 
z
" clip-path="url(#p0feb9d689f)" style="fill: #d65f5f; stroke: #ffffff; stroke-linejoin: miter"/>
   </g>
   <g id="patch_39">
    <path d="M 260.878902 304.891134 
L 396.714886 304.891134 
L 396.714886 363.944138 
L 260.878902 363.944138 
z
" clip-path="url(#p0feb9d689f)" style="fill: #d65f5f; stroke: #ffffff; stroke-linejoin: miter"/>
   </g>
   <g id="patch_40">
    <path d="M 430.673883 304.891134 
L 566.509867 304.891134 
L 566.509867 393.470639 
L 430.673883 393.470639 
z
" clip-path="url(#p0feb9d689f)" style="fill: #d65f5f; stroke: #ffffff; stroke-linejoin: miter"/>
   </g>
   <g id="patch_41">
    <path d="M 600.468864 304.891134 
L 736.304848 304.891134 
L 736.304848 393.470639 
L 600.468864 393.470639 
z
" clip-path="url(#p0feb9d689f)" style="fill: #d65f5f; stroke: #ffffff; stroke-linejoin: miter"/>
   </g>
   <g id="patch_42">
    <path d="M 770.263845 304.891134 
L 906.09983 304.891134 
L 906.09983 393.470639 
L 770.263845 393.470639 
z
" clip-path="url(#p0feb9d689f)" style="fill: #d65f5f; stroke: #ffffff; stroke-linejoin: miter"/>
   </g>
   <g id="patch_43">
    <path d="M 91.08392 304.891134 
L 226.919905 304.891134 
L 226.919905 354.10197 
L 91.08392 354.10197 
z
" clip-path="url(#p0feb9d689f)" style="fill: #d5bb67; stroke: #ffffff; stroke-linejoin: miter"/>
   </g>
   <g id="patch_44">
    <path d="M 260.878902 304.891134 
L 396.714886 304.891134 
L 396.714886 354.10197 
L 260.878902 354.10197 
z
" clip-path="url(#p0feb9d689f)" style="fill: #d5bb67; stroke: #ffffff; stroke-linejoin: miter"/>
   </g>
   <g id="patch_45">
    <path d="M 430.673883 304.891134 
L 566.509867 304.891134 
L 566.509867 363.944138 
L 430.673883 363.944138 
z
" clip-path="url(#p0feb9d689f)" style="fill: #d5bb67; stroke: #ffffff; stroke-linejoin: miter"/>
   </g>
   <g id="patch_46">
    <path d="M 600.468864 304.891134 
L 736.304848 304.891134 
L 736.304848 393.470639 
L 600.468864 393.470639 
z
" clip-path="url(#p0feb9d689f)" style="fill: #d5bb67; stroke: #ffffff; stroke-linejoin: miter"/>
   </g>
   <g id="patch_47">
    <path d="M 770.263845 304.891134 
L 906.09983 304.891134 
L 906.09983 393.470639 
L 770.263845 393.470639 
z
" clip-path="url(#p0feb9d689f)" style="fill: #d5bb67; stroke: #ffffff; stroke-linejoin: miter"/>
   </g>
   <g id="patch_48">
    <path d="M 50.333125 400.360156 
L 50.333125 248.790781 
" style="fill: none; stroke: #ffffff; stroke-width: 1.25; stroke-linejoin: miter; stroke-linecap: square"/>
   </g>
   <g id="patch_49">
    <path d="M 946.850625 400.360156 
L 946.850625 248.790781 
" style="fill: none; stroke: #ffffff; stroke-width: 1.25; stroke-linejoin: miter; stroke-linecap: square"/>
   </g>
   <g id="patch_50">
    <path d="M 50.333125 400.360156 
L 946.850625 400.360156 
" style="fill: none; stroke: #ffffff; stroke-width: 1.25; stroke-linejoin: miter; stroke-linecap: square"/>
   </g>
   <g id="patch_51">
    <path d="M 50.333125 248.790781 
L 946.850625 248.790781 
" style="fill: none; stroke: #ffffff; stroke-width: 1.25; stroke-linejoin: miter; stroke-linecap: square"/>
   </g>
  </g>
  <g id="axes_3">
   <g id="patch_52">
    <path d="M 50.333125 595.249375 
L 946.850625 595.249375 
L 946.850625 443.68 
L 50.333125 443.68 
z
" style="fill: #eaeaf2"/>
   </g>
   <g id="matplotlib.axis_5">
    <g id="xtick_11">
     <g id="line2d_19">
      <path d="M 159.001913 595.249375 
L 159.001913 443.68 
" clip-path="url(#p3523179153)" style="fill: none; stroke: #ffffff; stroke-linecap: round"/>
     </g>
     <g id="text_21">
      <!-- 1 -->
      <g style="fill: #262626" transform="translate(155.943397 612.622969)scale(0.11 -0.11)">
       <use xlink:href="#ArialMT-31"/>
      </g>
     </g>
    </g>
    <g id="xtick_12">
     <g id="line2d_20">
      <path d="M 328.796894 595.249375 
L 328.796894 443.68 
" clip-path="url(#p3523179153)" style="fill: none; stroke: #ffffff; stroke-linecap: round"/>
     </g>
     <g id="text_22">
      <!-- 2 -->
      <g style="fill: #262626" transform="translate(325.738378 612.622969)scale(0.11 -0.11)">
       <use xlink:href="#ArialMT-32"/>
      </g>
     </g>
    </g>
    <g id="xtick_13">
     <g id="line2d_21">
      <path d="M 498.591875 595.249375 
L 498.591875 443.68 
" clip-path="url(#p3523179153)" style="fill: none; stroke: #ffffff; stroke-linecap: round"/>
     </g>
     <g id="text_23">
      <!-- 3 -->
      <g style="fill: #262626" transform="translate(495.533359 612.622969)scale(0.11 -0.11)">
       <use xlink:href="#ArialMT-33"/>
      </g>
     </g>
    </g>
    <g id="xtick_14">
     <g id="line2d_22">
      <path d="M 668.386856 595.249375 
L 668.386856 443.68 
" clip-path="url(#p3523179153)" style="fill: none; stroke: #ffffff; stroke-linecap: round"/>
     </g>
     <g id="text_24">
      <!-- 4 -->
      <g style="fill: #262626" transform="translate(665.32834 612.622969)scale(0.11 -0.11)">
       <use xlink:href="#ArialMT-34"/>
      </g>
     </g>
    </g>
    <g id="xtick_15">
     <g id="line2d_23">
      <path d="M 838.181837 595.249375 
L 838.181837 443.68 
" clip-path="url(#p3523179153)" style="fill: none; stroke: #ffffff; stroke-linecap: round"/>
     </g>
     <g id="text_25">
      <!-- 5 -->
      <g style="fill: #262626" transform="translate(835.123321 612.622969)scale(0.11 -0.11)">
       <use xlink:href="#ArialMT-35"/>
      </g>
     </g>
    </g>
   </g>
   <g id="matplotlib.axis_6">
    <g id="ytick_9">
     <g id="line2d_24">
      <path d="M 50.333125 575.833463 
L 946.850625 575.833463 
" clip-path="url(#p3523179153)" style="fill: none; stroke: #ffffff; stroke-linecap: round"/>
     </g>
     <g id="text_26">
      <!-- −10 -->
      <g style="fill: #262626" transform="translate(22.174375 579.77026)scale(0.11 -0.11)">
       <use xlink:href="#ArialMT-2212"/>
       <use xlink:href="#ArialMT-31" x="58.398438"/>
       <use xlink:href="#ArialMT-30" x="114.013672"/>
      </g>
     </g>
    </g>
    <g id="ytick_10">
     <g id="line2d_25">
      <path d="M 50.333125 544.517477 
L 946.850625 544.517477 
" clip-path="url(#p3523179153)" style="fill: none; stroke: #ffffff; stroke-linecap: round"/>
     </g>
     <g id="text_27">
      <!-- −5 -->
      <g style="fill: #262626" transform="translate(28.291406 548.454274)scale(0.11 -0.11)">
       <use xlink:href="#ArialMT-2212"/>
       <use xlink:href="#ArialMT-35" x="58.398438"/>
      </g>
     </g>
    </g>
    <g id="ytick_11">
     <g id="line2d_26">
      <path d="M 50.333125 513.20149 
L 946.850625 513.20149 
" clip-path="url(#p3523179153)" style="fill: none; stroke: #ffffff; stroke-linecap: round"/>
     </g>
     <g id="text_28">
      <!-- 0 -->
      <g style="fill: #262626" transform="translate(34.716094 517.138287)scale(0.11 -0.11)">
       <use xlink:href="#ArialMT-30"/>
      </g>
     </g>
    </g>
    <g id="ytick_12">
     <g id="line2d_27">
      <path d="M 50.333125 481.885504 
L 946.850625 481.885504 
" clip-path="url(#p3523179153)" style="fill: none; stroke: #ffffff; stroke-linecap: round"/>
     </g>
     <g id="text_29">
      <!-- 5 -->
      <g style="fill: #262626" transform="translate(34.716094 485.8223)scale(0.11 -0.11)">
       <use xlink:href="#ArialMT-35"/>
      </g>
     </g>
    </g>
    <g id="ytick_13">
     <g id="line2d_28">
      <path d="M 50.333125 450.569517 
L 946.850625 450.569517 
" clip-path="url(#p3523179153)" style="fill: none; stroke: #ffffff; stroke-linecap: round"/>
     </g>
     <g id="text_30">
      <!-- 10 -->
      <g style="fill: #262626" transform="translate(28.599063 454.506314)scale(0.11 -0.11)">
       <use xlink:href="#ArialMT-31"/>
       <use xlink:href="#ArialMT-30" x="55.615234"/>
      </g>
     </g>
    </g>
    <g id="text_31">
     <!-- $\omega_3$ -->
     <g style="fill: #262626" transform="translate(15.789375 527.384687)rotate(-90)scale(0.12 -0.12)">
      <defs>
       <path id="DejaVuSans-33" d="M 2597 2516 
Q 3050 2419 3304 2112 
Q 3559 1806 3559 1356 
Q 3559 666 3084 287 
Q 2609 -91 1734 -91 
Q 1441 -91 1130 -33 
Q 819 25 488 141 
L 488 750 
Q 750 597 1062 519 
Q 1375 441 1716 441 
Q 2309 441 2620 675 
Q 2931 909 2931 1356 
Q 2931 1769 2642 2001 
Q 2353 2234 1838 2234 
L 1294 2234 
L 1294 2753 
L 1863 2753 
Q 2328 2753 2575 2939 
Q 2822 3125 2822 3475 
Q 2822 3834 2567 4026 
Q 2313 4219 1838 4219 
Q 1578 4219 1281 4162 
Q 984 4106 628 3988 
L 628 4550 
Q 988 4650 1302 4700 
Q 1616 4750 1894 4750 
Q 2613 4750 3031 4423 
Q 3450 4097 3450 3541 
Q 3450 3153 3228 2886 
Q 3006 2619 2597 2516 
z
" transform="scale(0.015625)"/>
      </defs>
      <use xlink:href="#DejaVuSans-Oblique-3c9" transform="translate(0 0.3125)"/>
      <use xlink:href="#DejaVuSans-33" transform="translate(83.740234 -16.09375)scale(0.7)"/>
     </g>
    </g>
   </g>
   <g id="patch_53">
    <path d="M 91.08392 513.20149 
L 226.919905 513.20149 
L 226.919905 450.569517 
L 91.08392 450.569517 
z
" clip-path="url(#p3523179153)" style="fill: #6acc64; stroke: #ffffff; stroke-linejoin: miter"/>
   </g>
   <g id="patch_54">
    <path d="M 260.878902 513.20149 
L 396.714886 513.20149 
L 396.714886 463.095912 
L 260.878902 463.095912 
z
" clip-path="url(#p3523179153)" style="fill: #6acc64; stroke: #ffffff; stroke-linejoin: miter"/>
   </g>
   <g id="patch_55">
    <path d="M 430.673883 513.20149 
L 566.509867 513.20149 
L 566.509867 456.832714 
L 430.673883 456.832714 
z
" clip-path="url(#p3523179153)" style="fill: #6acc64; stroke: #ffffff; stroke-linejoin: miter"/>
   </g>
   <g id="patch_56">
    <path d="M 600.468864 513.20149 
L 736.304848 513.20149 
L 736.304848 456.832714 
L 600.468864 456.832714 
z
" clip-path="url(#p3523179153)" style="fill: #6acc64; stroke: #ffffff; stroke-linejoin: miter"/>
   </g>
   <g id="patch_57">
    <path d="M 770.263845 513.20149 
L 906.09983 513.20149 
L 906.09983 456.832714 
L 770.263845 456.832714 
z
" clip-path="url(#p3523179153)" style="fill: #6acc64; stroke: #ffffff; stroke-linejoin: miter"/>
   </g>
   <g id="patch_58">
    <path d="M 91.08392 513.20149 
L 226.919905 513.20149 
L 226.919905 450.569517 
L 91.08392 450.569517 
z
" clip-path="url(#p3523179153)" style="fill: #4878d0; stroke: #ffffff; stroke-linejoin: miter"/>
   </g>
   <g id="patch_59">
    <path d="M 260.878902 513.20149 
L 396.714886 513.20149 
L 396.714886 463.095912 
L 260.878902 463.095912 
z
" clip-path="url(#p3523179153)" style="fill: #4878d0; stroke: #ffffff; stroke-linejoin: miter"/>
   </g>
   <g id="patch_60">
    <path d="M 430.673883 513.20149 
L 566.509867 513.20149 
L 566.509867 475.622306 
L 430.673883 475.622306 
z
" clip-path="url(#p3523179153)" style="fill: #4878d0; stroke: #ffffff; stroke-linejoin: miter"/>
   </g>
   <g id="patch_61">
    <path d="M 600.468864 513.20149 
L 736.304848 513.20149 
L 736.304848 456.832714 
L 600.468864 456.832714 
z
" clip-path="url(#p3523179153)" style="fill: #4878d0; stroke: #ffffff; stroke-linejoin: miter"/>
   </g>
   <g id="patch_62">
    <path d="M 770.263845 513.20149 
L 906.09983 513.20149 
L 906.09983 456.832714 
L 770.263845 456.832714 
z
" clip-path="url(#p3523179153)" style="fill: #4878d0; stroke: #ffffff; stroke-linejoin: miter"/>
   </g>
   <g id="patch_63">
    <path d="M 91.08392 513.20149 
L 226.919905 513.20149 
L 226.919905 575.833463 
L 91.08392 575.833463 
z
" clip-path="url(#p3523179153)" style="fill: #d65f5f; stroke: #ffffff; stroke-linejoin: miter"/>
   </g>
   <g id="patch_64">
    <path d="M 260.878902 513.20149 
L 396.714886 513.20149 
L 396.714886 588.359858 
L 260.878902 588.359858 
z
" clip-path="url(#p3523179153)" style="fill: #d65f5f; stroke: #ffffff; stroke-linejoin: miter"/>
   </g>
   <g id="patch_65">
    <path d="M 430.673883 513.20149 
L 566.509867 513.20149 
L 566.509867 582.096661 
L 430.673883 582.096661 
z
" clip-path="url(#p3523179153)" style="fill: #d65f5f; stroke: #ffffff; stroke-linejoin: miter"/>
   </g>
   <g id="patch_66">
    <path d="M 600.468864 513.20149 
L 736.304848 513.20149 
L 736.304848 582.096661 
L 600.468864 582.096661 
z
" clip-path="url(#p3523179153)" style="fill: #d65f5f; stroke: #ffffff; stroke-linejoin: miter"/>
   </g>
   <g id="patch_67">
    <path d="M 770.263845 513.20149 
L 906.09983 513.20149 
L 906.09983 582.096661 
L 770.263845 582.096661 
z
" clip-path="url(#p3523179153)" style="fill: #d65f5f; stroke: #ffffff; stroke-linejoin: miter"/>
   </g>
   <g id="patch_68">
    <path d="M 91.08392 513.20149 
L 226.919905 513.20149 
L 226.919905 575.833463 
L 91.08392 575.833463 
z
" clip-path="url(#p3523179153)" style="fill: #d5bb67; stroke: #ffffff; stroke-linejoin: miter"/>
   </g>
   <g id="patch_69">
    <path d="M 260.878902 513.20149 
L 396.714886 513.20149 
L 396.714886 575.833463 
L 260.878902 575.833463 
z
" clip-path="url(#p3523179153)" style="fill: #d5bb67; stroke: #ffffff; stroke-linejoin: miter"/>
   </g>
   <g id="patch_70">
    <path d="M 430.673883 513.20149 
L 566.509867 513.20149 
L 566.509867 569.570266 
L 430.673883 569.570266 
z
" clip-path="url(#p3523179153)" style="fill: #d5bb67; stroke: #ffffff; stroke-linejoin: miter"/>
   </g>
   <g id="patch_71">
    <path d="M 600.468864 513.20149 
L 736.304848 513.20149 
L 736.304848 582.096661 
L 600.468864 582.096661 
z
" clip-path="url(#p3523179153)" style="fill: #d5bb67; stroke: #ffffff; stroke-linejoin: miter"/>
   </g>
   <g id="patch_72">
    <path d="M 770.263845 513.20149 
L 906.09983 513.20149 
L 906.09983 582.096661 
L 770.263845 582.096661 
z
" clip-path="url(#p3523179153)" style="fill: #d5bb67; stroke: #ffffff; stroke-linejoin: miter"/>
   </g>
   <g id="patch_73">
    <path d="M 50.333125 595.249375 
L 50.333125 443.68 
" style="fill: none; stroke: #ffffff; stroke-width: 1.25; stroke-linejoin: miter; stroke-linecap: square"/>
   </g>
   <g id="patch_74">
    <path d="M 946.850625 595.249375 
L 946.850625 443.68 
" style="fill: none; stroke: #ffffff; stroke-width: 1.25; stroke-linejoin: miter; stroke-linecap: square"/>
   </g>
   <g id="patch_75">
    <path d="M 50.333125 595.249375 
L 946.850625 595.249375 
" style="fill: none; stroke: #ffffff; stroke-width: 1.25; stroke-linejoin: miter; stroke-linecap: square"/>
   </g>
   <g id="patch_76">
    <path d="M 50.333125 443.68 
L 946.850625 443.68 
" style="fill: none; stroke: #ffffff; stroke-width: 1.25; stroke-linejoin: miter; stroke-linecap: square"/>
   </g>
  </g>
  <g id="axes_4">
   <g id="patch_77">
    <path d="M 50.333125 790.138594 
L 946.850625 790.138594 
L 946.850625 638.569219 
L 50.333125 638.569219 
z
" style="fill: #eaeaf2"/>
   </g>
   <g id="matplotlib.axis_7">
    <g id="xtick_16">
     <g id="line2d_29">
      <path d="M 159.001913 790.138594 
L 159.001913 638.569219 
" clip-path="url(#p9149e48074)" style="fill: none; stroke: #ffffff; stroke-linecap: round"/>
     </g>
     <g id="text_32">
      <!-- 1 -->
      <g style="fill: #262626" transform="translate(155.943397 807.512187)scale(0.11 -0.11)">
       <use xlink:href="#ArialMT-31"/>
      </g>
     </g>
    </g>
    <g id="xtick_17">
     <g id="line2d_30">
      <path d="M 328.796894 790.138594 
L 328.796894 638.569219 
" clip-path="url(#p9149e48074)" style="fill: none; stroke: #ffffff; stroke-linecap: round"/>
     </g>
     <g id="text_33">
      <!-- 2 -->
      <g style="fill: #262626" transform="translate(325.738378 807.512187)scale(0.11 -0.11)">
       <use xlink:href="#ArialMT-32"/>
      </g>
     </g>
    </g>
    <g id="xtick_18">
     <g id="line2d_31">
      <path d="M 498.591875 790.138594 
L 498.591875 638.569219 
" clip-path="url(#p9149e48074)" style="fill: none; stroke: #ffffff; stroke-linecap: round"/>
     </g>
     <g id="text_34">
      <!-- 3 -->
      <g style="fill: #262626" transform="translate(495.533359 807.512187)scale(0.11 -0.11)">
       <use xlink:href="#ArialMT-33"/>
      </g>
     </g>
    </g>
    <g id="xtick_19">
     <g id="line2d_32">
      <path d="M 668.386856 790.138594 
L 668.386856 638.569219 
" clip-path="url(#p9149e48074)" style="fill: none; stroke: #ffffff; stroke-linecap: round"/>
     </g>
     <g id="text_35">
      <!-- 4 -->
      <g style="fill: #262626" transform="translate(665.32834 807.512187)scale(0.11 -0.11)">
       <use xlink:href="#ArialMT-34"/>
      </g>
     </g>
    </g>
    <g id="xtick_20">
     <g id="line2d_33">
      <path d="M 838.181837 790.138594 
L 838.181837 638.569219 
" clip-path="url(#p9149e48074)" style="fill: none; stroke: #ffffff; stroke-linecap: round"/>
     </g>
     <g id="text_36">
      <!-- 5 -->
      <g style="fill: #262626" transform="translate(835.123321 807.512187)scale(0.11 -0.11)">
       <use xlink:href="#ArialMT-35"/>
      </g>
     </g>
    </g>
    <g id="text_37">
     <!-- years -->
     <g style="fill: #262626" transform="translate(476.585469 826.371562)scale(0.18 -0.18)">
      <defs>
       <path id="ArialMT-79" d="M 397 -1278 
L 334 -750 
Q 519 -800 656 -800 
Q 844 -800 956 -737 
Q 1069 -675 1141 -563 
Q 1194 -478 1313 -144 
Q 1328 -97 1363 -6 
L 103 3319 
L 709 3319 
L 1400 1397 
Q 1534 1031 1641 628 
Q 1738 1016 1872 1384 
L 2581 3319 
L 3144 3319 
L 1881 -56 
Q 1678 -603 1566 -809 
Q 1416 -1088 1222 -1217 
Q 1028 -1347 759 -1347 
Q 597 -1347 397 -1278 
z
" transform="scale(0.015625)"/>
       <path id="ArialMT-65" d="M 2694 1069 
L 3275 997 
Q 3138 488 2766 206 
Q 2394 -75 1816 -75 
Q 1088 -75 661 373 
Q 234 822 234 1631 
Q 234 2469 665 2931 
Q 1097 3394 1784 3394 
Q 2450 3394 2872 2941 
Q 3294 2488 3294 1666 
Q 3294 1616 3291 1516 
L 816 1516 
Q 847 969 1125 678 
Q 1403 388 1819 388 
Q 2128 388 2347 550 
Q 2566 713 2694 1069 
z
M 847 1978 
L 2700 1978 
Q 2663 2397 2488 2606 
Q 2219 2931 1791 2931 
Q 1403 2931 1139 2672 
Q 875 2413 847 1978 
z
" transform="scale(0.015625)"/>
       <path id="ArialMT-61" d="M 2588 409 
Q 2275 144 1986 34 
Q 1697 -75 1366 -75 
Q 819 -75 525 192 
Q 231 459 231 875 
Q 231 1119 342 1320 
Q 453 1522 633 1644 
Q 813 1766 1038 1828 
Q 1203 1872 1538 1913 
Q 2219 1994 2541 2106 
Q 2544 2222 2544 2253 
Q 2544 2597 2384 2738 
Q 2169 2928 1744 2928 
Q 1347 2928 1158 2789 
Q 969 2650 878 2297 
L 328 2372 
Q 403 2725 575 2942 
Q 747 3159 1072 3276 
Q 1397 3394 1825 3394 
Q 2250 3394 2515 3294 
Q 2781 3194 2906 3042 
Q 3031 2891 3081 2659 
Q 3109 2516 3109 2141 
L 3109 1391 
Q 3109 606 3145 398 
Q 3181 191 3288 0 
L 2700 0 
Q 2613 175 2588 409 
z
M 2541 1666 
Q 2234 1541 1622 1453 
Q 1275 1403 1131 1340 
Q 988 1278 909 1158 
Q 831 1038 831 891 
Q 831 666 1001 516 
Q 1172 366 1500 366 
Q 1825 366 2078 508 
Q 2331 650 2450 897 
Q 2541 1088 2541 1459 
L 2541 1666 
z
" transform="scale(0.015625)"/>
       <path id="ArialMT-72" d="M 416 0 
L 416 3319 
L 922 3319 
L 922 2816 
Q 1116 3169 1280 3281 
Q 1444 3394 1641 3394 
Q 1925 3394 2219 3213 
L 2025 2691 
Q 1819 2813 1613 2813 
Q 1428 2813 1281 2702 
Q 1134 2591 1072 2394 
Q 978 2094 978 1738 
L 978 0 
L 416 0 
z
" transform="scale(0.015625)"/>
       <path id="ArialMT-73" d="M 197 991 
L 753 1078 
Q 800 744 1014 566 
Q 1228 388 1613 388 
Q 2000 388 2187 545 
Q 2375 703 2375 916 
Q 2375 1106 2209 1216 
Q 2094 1291 1634 1406 
Q 1016 1563 777 1677 
Q 538 1791 414 1992 
Q 291 2194 291 2438 
Q 291 2659 392 2848 
Q 494 3038 669 3163 
Q 800 3259 1026 3326 
Q 1253 3394 1513 3394 
Q 1903 3394 2198 3281 
Q 2494 3169 2634 2976 
Q 2775 2784 2828 2463 
L 2278 2388 
Q 2241 2644 2061 2787 
Q 1881 2931 1553 2931 
Q 1166 2931 1000 2803 
Q 834 2675 834 2503 
Q 834 2394 903 2306 
Q 972 2216 1119 2156 
Q 1203 2125 1616 2013 
Q 2213 1853 2448 1751 
Q 2684 1650 2818 1456 
Q 2953 1263 2953 975 
Q 2953 694 2789 445 
Q 2625 197 2315 61 
Q 2006 -75 1616 -75 
Q 969 -75 630 194 
Q 291 463 197 991 
z
" transform="scale(0.015625)"/>
      </defs>
      <use xlink:href="#ArialMT-79"/>
      <use xlink:href="#ArialMT-65" x="50"/>
      <use xlink:href="#ArialMT-61" x="105.615234"/>
      <use xlink:href="#ArialMT-72" x="161.230469"/>
      <use xlink:href="#ArialMT-73" x="194.53125"/>
     </g>
    </g>
   </g>
   <g id="matplotlib.axis_8">
    <g id="ytick_14">
     <g id="line2d_34">
      <path d="M 50.333125 788.000468 
L 946.850625 788.000468 
" clip-path="url(#p9149e48074)" style="fill: none; stroke: #ffffff; stroke-linecap: round"/>
     </g>
     <g id="text_38">
      <!-- −20 -->
      <g style="fill: #262626" transform="translate(22.174375 791.937265)scale(0.11 -0.11)">
       <use xlink:href="#ArialMT-2212"/>
       <use xlink:href="#ArialMT-32" x="58.398438"/>
       <use xlink:href="#ArialMT-30" x="114.013672"/>
      </g>
     </g>
    </g>
    <g id="ytick_15">
     <g id="line2d_35">
      <path d="M 50.333125 740.486557 
L 946.850625 740.486557 
" clip-path="url(#p9149e48074)" style="fill: none; stroke: #ffffff; stroke-linecap: round"/>
     </g>
     <g id="text_39">
      <!-- −10 -->
      <g style="fill: #262626" transform="translate(22.174375 744.423354)scale(0.11 -0.11)">
       <use xlink:href="#ArialMT-2212"/>
       <use xlink:href="#ArialMT-31" x="58.398438"/>
       <use xlink:href="#ArialMT-30" x="114.013672"/>
      </g>
     </g>
    </g>
    <g id="ytick_16">
     <g id="line2d_36">
      <path d="M 50.333125 692.972646 
L 946.850625 692.972646 
" clip-path="url(#p9149e48074)" style="fill: none; stroke: #ffffff; stroke-linecap: round"/>
     </g>
     <g id="text_40">
      <!-- 0 -->
      <g style="fill: #262626" transform="translate(34.716094 696.909443)scale(0.11 -0.11)">
       <use xlink:href="#ArialMT-30"/>
      </g>
     </g>
    </g>
    <g id="ytick_17">
     <g id="line2d_37">
      <path d="M 50.333125 645.458736 
L 946.850625 645.458736 
" clip-path="url(#p9149e48074)" style="fill: none; stroke: #ffffff; stroke-linecap: round"/>
     </g>
     <g id="text_41">
      <!-- 10 -->
      <g style="fill: #262626" transform="translate(28.599063 649.395533)scale(0.11 -0.11)">
       <use xlink:href="#ArialMT-31"/>
       <use xlink:href="#ArialMT-30" x="55.615234"/>
      </g>
     </g>
    </g>
    <g id="text_42">
     <!-- $\omega_4$ -->
     <g style="fill: #262626" transform="translate(15.789375 722.273906)rotate(-90)scale(0.12 -0.12)">
      <defs>
       <path id="DejaVuSans-34" d="M 2419 4116 
L 825 1625 
L 2419 1625 
L 2419 4116 
z
M 2253 4666 
L 3047 4666 
L 3047 1625 
L 3713 1625 
L 3713 1100 
L 3047 1100 
L 3047 0 
L 2419 0 
L 2419 1100 
L 313 1100 
L 313 1709 
L 2253 4666 
z
" transform="scale(0.015625)"/>
      </defs>
      <use xlink:href="#DejaVuSans-Oblique-3c9" transform="translate(0 0.3125)"/>
      <use xlink:href="#DejaVuSans-34" transform="translate(83.740234 -16.09375)scale(0.7)"/>
     </g>
    </g>
   </g>
   <g id="patch_78">
    <path d="M 91.08392 692.972646 
L 226.919905 692.972646 
L 226.919905 645.458736 
L 91.08392 645.458736 
z
" clip-path="url(#p9149e48074)" style="fill: #6acc64; stroke: #ffffff; stroke-linejoin: miter"/>
   </g>
   <g id="patch_79">
    <path d="M 260.878902 692.972646 
L 396.714886 692.972646 
L 396.714886 654.961518 
L 260.878902 654.961518 
z
" clip-path="url(#p9149e48074)" style="fill: #6acc64; stroke: #ffffff; stroke-linejoin: miter"/>
   </g>
   <g id="patch_80">
    <path d="M 430.673883 692.972646 
L 566.509867 692.972646 
L 566.509867 669.215691 
L 430.673883 669.215691 
z
" clip-path="url(#p9149e48074)" style="fill: #6acc64; stroke: #ffffff; stroke-linejoin: miter"/>
   </g>
   <g id="patch_81">
    <path d="M 600.468864 692.972646 
L 736.304848 692.972646 
L 736.304848 688.221255 
L 600.468864 688.221255 
z
" clip-path="url(#p9149e48074)" style="fill: #6acc64; stroke: #ffffff; stroke-linejoin: miter"/>
   </g>
   <g id="patch_82">
    <path d="M 770.263845 692.972646 
L 906.09983 692.972646 
L 906.09983 669.215691 
L 770.263845 669.215691 
z
" clip-path="url(#p9149e48074)" style="fill: #6acc64; stroke: #ffffff; stroke-linejoin: miter"/>
   </g>
   <g id="patch_83">
    <path d="M 91.08392 692.972646 
L 226.919905 692.972646 
L 226.919905 645.458736 
L 91.08392 645.458736 
z
" clip-path="url(#p9149e48074)" style="fill: #4878d0; stroke: #ffffff; stroke-linejoin: miter"/>
   </g>
   <g id="patch_84">
    <path d="M 260.878902 692.972646 
L 396.714886 692.972646 
L 396.714886 654.961518 
L 260.878902 654.961518 
z
" clip-path="url(#p9149e48074)" style="fill: #4878d0; stroke: #ffffff; stroke-linejoin: miter"/>
   </g>
   <g id="patch_85">
    <path d="M 430.673883 692.972646 
L 566.509867 692.972646 
L 566.509867 673.967082 
L 430.673883 673.967082 
z
" clip-path="url(#p9149e48074)" style="fill: #4878d0; stroke: #ffffff; stroke-linejoin: miter"/>
   </g>
   <g id="patch_86">
    <path d="M 600.468864 692.972646 
L 736.304848 692.972646 
L 736.304848 688.221255 
L 600.468864 688.221255 
z
" clip-path="url(#p9149e48074)" style="fill: #4878d0; stroke: #ffffff; stroke-linejoin: miter"/>
   </g>
   <g id="patch_87">
    <path d="M 770.263845 692.972646 
L 906.09983 692.972646 
L 906.09983 688.221255 
L 770.263845 688.221255 
z
" clip-path="url(#p9149e48074)" style="fill: #4878d0; stroke: #ffffff; stroke-linejoin: miter"/>
   </g>
   <g id="patch_88">
    <path d="M 91.08392 692.972646 
L 226.919905 692.972646 
L 226.919905 740.486557 
L 91.08392 740.486557 
z
" clip-path="url(#p9149e48074)" style="fill: #d65f5f; stroke: #ffffff; stroke-linejoin: miter"/>
   </g>
   <g id="patch_89">
    <path d="M 260.878902 692.972646 
L 396.714886 692.972646 
L 396.714886 749.989339 
L 260.878902 749.989339 
z
" clip-path="url(#p9149e48074)" style="fill: #d65f5f; stroke: #ffffff; stroke-linejoin: miter"/>
   </g>
   <g id="patch_90">
    <path d="M 430.673883 692.972646 
L 566.509867 692.972646 
L 566.509867 764.243512 
L 430.673883 764.243512 
z
" clip-path="url(#p9149e48074)" style="fill: #d65f5f; stroke: #ffffff; stroke-linejoin: miter"/>
   </g>
   <g id="patch_91">
    <path d="M 600.468864 692.972646 
L 736.304848 692.972646 
L 736.304848 783.249077 
L 600.468864 783.249077 
z
" clip-path="url(#p9149e48074)" style="fill: #d65f5f; stroke: #ffffff; stroke-linejoin: miter"/>
   </g>
   <g id="patch_92">
    <path d="M 770.263845 692.972646 
L 906.09983 692.972646 
L 906.09983 764.243512 
L 770.263845 764.243512 
z
" clip-path="url(#p9149e48074)" style="fill: #d65f5f; stroke: #ffffff; stroke-linejoin: miter"/>
   </g>
   <g id="patch_93">
    <path d="M 91.08392 692.972646 
L 226.919905 692.972646 
L 226.919905 740.486557 
L 91.08392 740.486557 
z
" clip-path="url(#p9149e48074)" style="fill: #d5bb67; stroke: #ffffff; stroke-linejoin: miter"/>
   </g>
   <g id="patch_94">
    <path d="M 260.878902 692.972646 
L 396.714886 692.972646 
L 396.714886 740.486557 
L 260.878902 740.486557 
z
" clip-path="url(#p9149e48074)" style="fill: #d5bb67; stroke: #ffffff; stroke-linejoin: miter"/>
   </g>
   <g id="patch_95">
    <path d="M 430.673883 692.972646 
L 566.509867 692.972646 
L 566.509867 745.237948 
L 430.673883 745.237948 
z
" clip-path="url(#p9149e48074)" style="fill: #d5bb67; stroke: #ffffff; stroke-linejoin: miter"/>
   </g>
   <g id="patch_96">
    <path d="M 600.468864 692.972646 
L 736.304848 692.972646 
L 736.304848 764.243512 
L 600.468864 764.243512 
z
" clip-path="url(#p9149e48074)" style="fill: #d5bb67; stroke: #ffffff; stroke-linejoin: miter"/>
   </g>
   <g id="patch_97">
    <path d="M 770.263845 692.972646 
L 906.09983 692.972646 
L 906.09983 764.243512 
L 770.263845 764.243512 
z
" clip-path="url(#p9149e48074)" style="fill: #d5bb67; stroke: #ffffff; stroke-linejoin: miter"/>
   </g>
   <g id="patch_98">
    <path d="M 50.333125 790.138594 
L 50.333125 638.569219 
" style="fill: none; stroke: #ffffff; stroke-width: 1.25; stroke-linejoin: miter; stroke-linecap: square"/>
   </g>
   <g id="patch_99">
    <path d="M 946.850625 790.138594 
L 946.850625 638.569219 
" style="fill: none; stroke: #ffffff; stroke-width: 1.25; stroke-linejoin: miter; stroke-linecap: square"/>
   </g>
   <g id="patch_100">
    <path d="M 50.333125 790.138594 
L 946.850625 790.138594 
" style="fill: none; stroke: #ffffff; stroke-width: 1.25; stroke-linejoin: miter; stroke-linecap: square"/>
   </g>
   <g id="patch_101">
    <path d="M 50.333125 638.569219 
L 946.850625 638.569219 
" style="fill: none; stroke: #ffffff; stroke-width: 1.25; stroke-linejoin: miter; stroke-linecap: square"/>
   </g>
   <g id="legend_1">
    <g id="patch_102">
     <path d="M 959.450625 781.138594 
L 1108.08 781.138594 
Q 1111.68 781.138594 1111.68 777.538594 
L 1111.68 676.859531 
Q 1111.68 673.259531 1108.08 673.259531 
L 959.450625 673.259531 
Q 955.850625 673.259531 955.850625 676.859531 
L 955.850625 777.538594 
Q 955.850625 781.138594 959.450625 781.138594 
z
" style="fill: #eaeaf2; opacity: 0.8; stroke: #cccccc; stroke-linejoin: miter"/>
    </g>
    <g id="patch_103">
     <path d="M 963.050625 693.343594 
L 999.050625 693.343594 
L 999.050625 680.743594 
L 963.050625 680.743594 
z
" style="fill: #6acc64; stroke: #ffffff; stroke-linejoin: miter"/>
    </g>
    <g id="text_43">
     <!-- joining -->
     <g style="fill: #262626" transform="translate(1013.450625 693.343594)scale(0.18 -0.18)">
      <defs>
       <path id="ArialMT-6a" d="M 419 3928 
L 419 4581 
L 981 4581 
L 981 3928 
L 419 3928 
z
M -294 -1288 
L -188 -809 
Q -19 -853 78 -853 
Q 250 -853 334 -739 
Q 419 -625 419 -169 
L 419 3319 
L 981 3319 
L 981 -181 
Q 981 -794 822 -1034 
Q 619 -1347 147 -1347 
Q -81 -1347 -294 -1288 
z
" transform="scale(0.015625)"/>
       <path id="ArialMT-6f" d="M 213 1659 
Q 213 2581 725 3025 
Q 1153 3394 1769 3394 
Q 2453 3394 2887 2945 
Q 3322 2497 3322 1706 
Q 3322 1066 3130 698 
Q 2938 331 2570 128 
Q 2203 -75 1769 -75 
Q 1072 -75 642 372 
Q 213 819 213 1659 
z
M 791 1659 
Q 791 1022 1069 705 
Q 1347 388 1769 388 
Q 2188 388 2466 706 
Q 2744 1025 2744 1678 
Q 2744 2294 2464 2611 
Q 2184 2928 1769 2928 
Q 1347 2928 1069 2612 
Q 791 2297 791 1659 
z
" transform="scale(0.015625)"/>
       <path id="ArialMT-69" d="M 425 3934 
L 425 4581 
L 988 4581 
L 988 3934 
L 425 3934 
z
M 425 0 
L 425 3319 
L 988 3319 
L 988 0 
L 425 0 
z
" transform="scale(0.015625)"/>
       <path id="ArialMT-6e" d="M 422 0 
L 422 3319 
L 928 3319 
L 928 2847 
Q 1294 3394 1984 3394 
Q 2284 3394 2536 3286 
Q 2788 3178 2913 3003 
Q 3038 2828 3088 2588 
Q 3119 2431 3119 2041 
L 3119 0 
L 2556 0 
L 2556 2019 
Q 2556 2363 2490 2533 
Q 2425 2703 2258 2804 
Q 2091 2906 1866 2906 
Q 1506 2906 1245 2678 
Q 984 2450 984 1813 
L 984 0 
L 422 0 
z
" transform="scale(0.015625)"/>
       <path id="ArialMT-67" d="M 319 -275 
L 866 -356 
Q 900 -609 1056 -725 
Q 1266 -881 1628 -881 
Q 2019 -881 2231 -725 
Q 2444 -569 2519 -288 
Q 2563 -116 2559 434 
Q 2191 0 1641 0 
Q 956 0 581 494 
Q 206 988 206 1678 
Q 206 2153 378 2554 
Q 550 2956 876 3175 
Q 1203 3394 1644 3394 
Q 2231 3394 2613 2919 
L 2613 3319 
L 3131 3319 
L 3131 450 
Q 3131 -325 2973 -648 
Q 2816 -972 2473 -1159 
Q 2131 -1347 1631 -1347 
Q 1038 -1347 672 -1080 
Q 306 -813 319 -275 
z
M 784 1719 
Q 784 1066 1043 766 
Q 1303 466 1694 466 
Q 2081 466 2343 764 
Q 2606 1063 2606 1700 
Q 2606 2309 2336 2618 
Q 2066 2928 1684 2928 
Q 1309 2928 1046 2623 
Q 784 2319 784 1719 
z
" transform="scale(0.015625)"/>
      </defs>
      <use xlink:href="#ArialMT-6a"/>
      <use xlink:href="#ArialMT-6f" x="22.216797"/>
      <use xlink:href="#ArialMT-69" x="77.832031"/>
      <use xlink:href="#ArialMT-6e" x="100.048828"/>
      <use xlink:href="#ArialMT-69" x="155.664062"/>
      <use xlink:href="#ArialMT-6e" x="177.880859"/>
      <use xlink:href="#ArialMT-67" x="233.496094"/>
     </g>
    </g>
    <g id="patch_104">
     <path d="M 963.050625 719.016094 
L 999.050625 719.016094 
L 999.050625 706.416094 
L 963.050625 706.416094 
z
" style="fill: #4878d0; stroke: #ffffff; stroke-linejoin: miter"/>
    </g>
    <g id="text_44">
     <!-- existing -->
     <g style="fill: #262626" transform="translate(1013.450625 719.016094)scale(0.18 -0.18)">
      <defs>
       <path id="ArialMT-78" d="M 47 0 
L 1259 1725 
L 138 3319 
L 841 3319 
L 1350 2541 
Q 1494 2319 1581 2169 
Q 1719 2375 1834 2534 
L 2394 3319 
L 3066 3319 
L 1919 1756 
L 3153 0 
L 2463 0 
L 1781 1031 
L 1600 1309 
L 728 0 
L 47 0 
z
" transform="scale(0.015625)"/>
       <path id="ArialMT-74" d="M 1650 503 
L 1731 6 
Q 1494 -44 1306 -44 
Q 1000 -44 831 53 
Q 663 150 594 308 
Q 525 466 525 972 
L 525 2881 
L 113 2881 
L 113 3319 
L 525 3319 
L 525 4141 
L 1084 4478 
L 1084 3319 
L 1650 3319 
L 1650 2881 
L 1084 2881 
L 1084 941 
Q 1084 700 1114 631 
Q 1144 563 1211 522 
Q 1278 481 1403 481 
Q 1497 481 1650 503 
z
" transform="scale(0.015625)"/>
      </defs>
      <use xlink:href="#ArialMT-65"/>
      <use xlink:href="#ArialMT-78" x="55.615234"/>
      <use xlink:href="#ArialMT-69" x="105.615234"/>
      <use xlink:href="#ArialMT-73" x="127.832031"/>
      <use xlink:href="#ArialMT-74" x="177.832031"/>
      <use xlink:href="#ArialMT-69" x="205.615234"/>
      <use xlink:href="#ArialMT-6e" x="227.832031"/>
      <use xlink:href="#ArialMT-67" x="283.447266"/>
     </g>
    </g>
    <g id="patch_105">
     <path d="M 963.050625 744.688594 
L 999.050625 744.688594 
L 999.050625 732.088594 
L 963.050625 732.088594 
z
" style="fill: #d65f5f; stroke: #ffffff; stroke-linejoin: miter"/>
    </g>
    <g id="text_45">
     <!-- leaving -->
     <g style="fill: #262626" transform="translate(1013.450625 744.688594)scale(0.18 -0.18)">
      <defs>
       <path id="ArialMT-6c" d="M 409 0 
L 409 4581 
L 972 4581 
L 972 0 
L 409 0 
z
" transform="scale(0.015625)"/>
       <path id="ArialMT-76" d="M 1344 0 
L 81 3319 
L 675 3319 
L 1388 1331 
Q 1503 1009 1600 663 
Q 1675 925 1809 1294 
L 2547 3319 
L 3125 3319 
L 1869 0 
L 1344 0 
z
" transform="scale(0.015625)"/>
      </defs>
      <use xlink:href="#ArialMT-6c"/>
      <use xlink:href="#ArialMT-65" x="22.216797"/>
      <use xlink:href="#ArialMT-61" x="77.832031"/>
      <use xlink:href="#ArialMT-76" x="133.447266"/>
      <use xlink:href="#ArialMT-69" x="183.447266"/>
      <use xlink:href="#ArialMT-6e" x="205.664062"/>
      <use xlink:href="#ArialMT-67" x="261.279297"/>
     </g>
    </g>
    <g id="patch_106">
     <path d="M 963.050625 770.361094 
L 999.050625 770.361094 
L 999.050625 757.761094 
L 963.050625 757.761094 
z
" style="fill: #d5bb67; stroke: #ffffff; stroke-linejoin: miter"/>
    </g>
    <g id="text_46">
     <!-- no member -->
     <g style="fill: #262626" transform="translate(1013.450625 770.361094)scale(0.18 -0.18)">
      <defs>
       <path id="ArialMT-20" transform="scale(0.015625)"/>
       <path id="ArialMT-6d" d="M 422 0 
L 422 3319 
L 925 3319 
L 925 2853 
Q 1081 3097 1340 3245 
Q 1600 3394 1931 3394 
Q 2300 3394 2536 3241 
Q 2772 3088 2869 2813 
Q 3263 3394 3894 3394 
Q 4388 3394 4653 3120 
Q 4919 2847 4919 2278 
L 4919 0 
L 4359 0 
L 4359 2091 
Q 4359 2428 4304 2576 
Q 4250 2725 4106 2815 
Q 3963 2906 3769 2906 
Q 3419 2906 3187 2673 
Q 2956 2441 2956 1928 
L 2956 0 
L 2394 0 
L 2394 2156 
Q 2394 2531 2256 2718 
Q 2119 2906 1806 2906 
Q 1569 2906 1367 2781 
Q 1166 2656 1075 2415 
Q 984 2175 984 1722 
L 984 0 
L 422 0 
z
" transform="scale(0.015625)"/>
       <path id="ArialMT-62" d="M 941 0 
L 419 0 
L 419 4581 
L 981 4581 
L 981 2947 
Q 1338 3394 1891 3394 
Q 2197 3394 2470 3270 
Q 2744 3147 2920 2923 
Q 3097 2700 3197 2384 
Q 3297 2069 3297 1709 
Q 3297 856 2875 390 
Q 2453 -75 1863 -75 
Q 1275 -75 941 416 
L 941 0 
z
M 934 1684 
Q 934 1088 1097 822 
Q 1363 388 1816 388 
Q 2184 388 2453 708 
Q 2722 1028 2722 1663 
Q 2722 2313 2464 2622 
Q 2206 2931 1841 2931 
Q 1472 2931 1203 2611 
Q 934 2291 934 1684 
z
" transform="scale(0.015625)"/>
      </defs>
      <use xlink:href="#ArialMT-6e"/>
      <use xlink:href="#ArialMT-6f" x="55.615234"/>
      <use xlink:href="#ArialMT-20" x="111.230469"/>
      <use xlink:href="#ArialMT-6d" x="139.013672"/>
      <use xlink:href="#ArialMT-65" x="222.314453"/>
      <use xlink:href="#ArialMT-6d" x="277.929688"/>
      <use xlink:href="#ArialMT-62" x="361.230469"/>
      <use xlink:href="#ArialMT-65" x="416.845703"/>
      <use xlink:href="#ArialMT-72" x="472.460938"/>
     </g>
    </g>
   </g>
  </g>
  <g id="text_47">
   <!-- Scenarios -->
   <g style="fill: #262626" transform="translate(519.420938 20.084062)scale(0.18 -0.18)">
    <defs>
     <path id="ArialMT-53" d="M 288 1472 
L 859 1522 
Q 900 1178 1048 958 
Q 1197 738 1509 602 
Q 1822 466 2213 466 
Q 2559 466 2825 569 
Q 3091 672 3220 851 
Q 3350 1031 3350 1244 
Q 3350 1459 3225 1620 
Q 3100 1781 2813 1891 
Q 2628 1963 1997 2114 
Q 1366 2266 1113 2400 
Q 784 2572 623 2826 
Q 463 3081 463 3397 
Q 463 3744 659 4045 
Q 856 4347 1234 4503 
Q 1613 4659 2075 4659 
Q 2584 4659 2973 4495 
Q 3363 4331 3572 4012 
Q 3781 3694 3797 3291 
L 3216 3247 
Q 3169 3681 2898 3903 
Q 2628 4125 2100 4125 
Q 1550 4125 1298 3923 
Q 1047 3722 1047 3438 
Q 1047 3191 1225 3031 
Q 1400 2872 2139 2705 
Q 2878 2538 3153 2413 
Q 3553 2228 3743 1945 
Q 3934 1663 3934 1294 
Q 3934 928 3725 604 
Q 3516 281 3123 101 
Q 2731 -78 2241 -78 
Q 1619 -78 1198 103 
Q 778 284 539 648 
Q 300 1013 288 1472 
z
" transform="scale(0.015625)"/>
     <path id="ArialMT-63" d="M 2588 1216 
L 3141 1144 
Q 3050 572 2676 248 
Q 2303 -75 1759 -75 
Q 1078 -75 664 370 
Q 250 816 250 1647 
Q 250 2184 428 2587 
Q 606 2991 970 3192 
Q 1334 3394 1763 3394 
Q 2303 3394 2647 3120 
Q 2991 2847 3088 2344 
L 2541 2259 
Q 2463 2594 2264 2762 
Q 2066 2931 1784 2931 
Q 1359 2931 1093 2626 
Q 828 2322 828 1663 
Q 828 994 1084 691 
Q 1341 388 1753 388 
Q 2084 388 2306 591 
Q 2528 794 2588 1216 
z
" transform="scale(0.015625)"/>
    </defs>
    <use xlink:href="#ArialMT-53"/>
    <use xlink:href="#ArialMT-63" x="66.699219"/>
    <use xlink:href="#ArialMT-65" x="116.699219"/>
    <use xlink:href="#ArialMT-6e" x="172.314453"/>
    <use xlink:href="#ArialMT-61" x="227.929688"/>
    <use xlink:href="#ArialMT-72" x="283.544922"/>
    <use xlink:href="#ArialMT-69" x="316.845703"/>
    <use xlink:href="#ArialMT-6f" x="339.0625"/>
    <use xlink:href="#ArialMT-73" x="394.677734"/>
   </g>
  </g>
 </g>
 <defs>
  <clipPath id="p355277eba3">
   <rect x="50.333125" y="53.901562" width="896.5175" height="151.569375"/>
  </clipPath>
  <clipPath id="p0feb9d689f">
   <rect x="50.333125" y="248.790781" width="896.5175" height="151.569375"/>
  </clipPath>
  <clipPath id="p3523179153">
   <rect x="50.333125" y="443.68" width="896.5175" height="151.569375"/>
  </clipPath>
  <clipPath id="p9149e48074">
   <rect x="50.333125" y="638.569219" width="896.5175" height="151.569375"/>
  </clipPath>
 </defs>
</svg>
